<svg width="12" height="13" viewBox="0 0 12 13" fill="none" xmlns="http://www.w3.org/2000/svg">
<path d="M0.343186 10.7421C-0.0473381 11.1326 -0.0473381 11.7658 0.343186 12.1563C0.733711 12.5468 1.36688 12.5468 1.7574 12.1563L0.343186 10.7421ZM11.9498 1.54972C11.9498 0.997439 11.5021 0.549724 10.9498 0.549724L1.94979 0.549724C1.3975 0.549724 0.949788 0.997439 0.949788 1.54972C0.949788 2.10201 1.3975 2.54972 1.94979 2.54972L9.94979 2.54972L9.94979 10.5497C9.94979 11.102 10.3975 11.5497 10.9498 11.5497C11.5021 11.5497 11.9498 11.102 11.9498 10.5497L11.9498 1.54972ZM1.7574 12.1563L11.6569 2.25683L10.2427 0.842617L0.343186 10.7421L1.7574 12.1563Z" fill="#883CDA"/>
</svg>
