<svg width="217" height="37" viewBox="0 0 217 37" fill="none" xmlns="http://www.w3.org/2000/svg">
<path d="M20.9399 21.5199H7.17118V30.7937H23.3302V36.5244H0V1.90231H23.2824V7.68059H7.17118V15.9319H20.9399V21.5199Z" fill="white"/>
<path d="M40.3977 27.9402L48.286 1.90231H56.2699L44.1506 36.5244H36.6686L24.5972 1.90231H32.5572L40.3977 27.9402Z" fill="white"/>
<path d="M89.8071 27.4409C89.8071 26.0934 89.329 25.063 88.3729 24.3496C87.4167 23.6204 85.6956 22.8595 83.2096 22.0668C80.7236 21.2584 78.7555 20.4657 77.3054 19.6889C73.3532 17.5647 71.3772 14.7033 71.3772 11.1048C71.3772 9.23415 71.9031 7.56962 72.9548 6.11118C74.0225 4.63689 75.5444 3.48758 77.5205 2.66324C79.5125 1.8389 81.7435 1.42674 84.2136 1.42674C86.6996 1.42674 88.9147 1.87853 90.8589 2.78213C92.8031 3.66988 94.309 4.93016 95.3767 6.56298C96.4604 8.1958 97.0022 10.0506 97.0022 12.1272H89.831C89.831 10.542 89.329 9.31341 88.3251 8.44152C87.3211 7.55377 85.9108 7.1099 84.0941 7.1099C82.3411 7.1099 80.9786 7.48243 80.0065 8.22751C79.0344 8.95673 78.5484 9.92374 78.5484 11.1285C78.5484 12.2541 79.1141 13.1973 80.2455 13.9582C81.3929 14.7192 83.0742 15.4325 85.2893 16.0983C89.3689 17.319 92.3409 18.8329 94.2054 20.6401C96.0699 22.4473 97.0022 24.6984 97.0022 27.3933C97.0022 30.3895 95.8628 32.7436 93.5839 34.4557C91.3051 36.1519 88.2374 37 84.3809 37C81.7037 37 79.2655 36.5165 77.0663 35.5495C74.8671 34.5666 73.1859 33.2271 72.0226 31.5308C70.8752 29.8346 70.3015 27.8689 70.3015 25.6337H77.4966C77.4966 29.4542 79.7914 31.3644 84.3809 31.3644C86.0861 31.3644 87.4167 31.0236 88.3729 30.3419C89.329 29.6444 89.8071 28.6774 89.8071 27.4409Z" fill="white"/>
<path d="M112.181 31.4595C113.456 31.4595 114.492 31.1108 115.289 30.4132C116.086 29.7157 116.5 28.7883 116.532 27.6311H123.01C122.994 29.3749 122.516 30.976 121.575 32.4344C120.635 33.877 119.344 35.0026 117.703 35.8111C116.078 36.6037 114.277 37 112.301 37C108.604 37 105.687 35.8348 103.552 33.5045C101.416 31.1583 100.349 27.9244 100.349 23.8027V23.3509C100.349 19.3877 101.408 16.2252 103.528 13.8631C105.647 11.5011 108.556 10.3201 112.253 10.3201C115.488 10.3201 118.078 11.2395 120.022 13.0784C121.982 14.9015 122.978 17.3348 123.01 20.3785H116.532C116.5 19.0469 116.086 17.9689 115.289 17.1446C114.492 16.3044 113.44 15.8843 112.133 15.8843C110.524 15.8843 109.305 16.4709 108.476 17.644C107.663 18.8012 107.257 20.6877 107.257 23.3033V24.0167C107.257 26.6641 107.663 28.5664 108.476 29.7237C109.289 30.8809 110.524 31.4595 112.181 31.4595Z" fill="white"/>
<path d="M133.695 13.6015C135.527 11.4139 137.83 10.3201 140.603 10.3201C146.212 10.3201 149.057 13.5619 149.137 20.0456V36.5244H142.228V20.2359C142.228 18.7616 141.91 17.6757 141.272 16.9781C140.635 16.2648 139.575 15.9081 138.093 15.9081C136.069 15.9081 134.603 16.6849 133.695 18.2384V36.5244H126.787V0H133.695V13.6015Z" fill="white"/>
<path d="M153.272 23.4222C153.272 20.87 153.766 18.5951 154.754 16.5977C155.742 14.6003 157.16 13.0546 159.009 11.9608C160.874 10.867 163.033 10.3201 165.487 10.3201C168.977 10.3201 171.822 11.3822 174.021 13.5064C176.236 15.6307 177.471 18.5159 177.726 22.162L177.774 23.9216C177.774 27.8689 176.666 31.0394 174.451 33.4332C172.236 35.8111 169.264 37 165.535 37C161.806 37 158.826 35.8111 156.595 33.4332C154.38 31.0553 153.272 27.8213 153.272 23.7314V23.4222ZM160.18 23.9216C160.18 26.3629 160.642 28.2335 161.567 29.5334C162.491 30.8175 163.814 31.4595 165.535 31.4595C167.208 31.4595 168.515 30.8254 169.455 29.5572C170.395 28.2731 170.865 26.2281 170.865 23.4222C170.865 21.0285 170.395 19.1737 169.455 17.858C168.515 16.5422 167.192 15.8843 165.487 15.8843C163.798 15.8843 162.491 16.5422 161.567 17.858C160.642 19.1579 160.18 21.1791 160.18 23.9216Z" fill="white"/>
<path d="M180.953 23.4222C180.953 20.87 181.447 18.5951 182.435 16.5977C183.423 14.6003 184.841 13.0546 186.69 11.9608C188.554 10.867 190.714 10.3201 193.168 10.3201C196.658 10.3201 199.502 11.3822 201.701 13.5064C203.917 15.6307 205.152 18.5159 205.407 22.162L205.454 23.9216C205.454 27.8689 204.347 31.0394 202.132 33.4332C199.917 35.8111 196.945 37 193.216 37C189.487 37 186.507 35.8111 184.275 33.4332C182.06 31.0553 180.953 27.8213 180.953 23.7314V23.4222ZM187.861 23.9216C187.861 26.3629 188.323 28.2335 189.248 29.5334C190.172 30.8175 191.494 31.4595 193.216 31.4595C194.889 31.4595 196.196 30.8254 197.136 29.5572C198.076 28.2731 198.546 26.2281 198.546 23.4222C198.546 21.0285 198.076 19.1737 197.136 17.858C196.196 16.5422 194.873 15.8843 193.168 15.8843C191.479 15.8843 190.172 16.5422 189.248 17.858C188.323 19.1579 187.861 21.1791 187.861 23.9216Z" fill="white"/>
<path d="M217 36.5244H210.068V0H217V36.5244Z" fill="white"/>
</svg>
