<svg width="278" height="43" viewBox="0 0 278 43" fill="none" xmlns="http://www.w3.org/2000/svg">
<path fill-rule="evenodd" clip-rule="evenodd" d="M251.175 10.0768C248.611 11.2513 243.215 12.4408 242.146 7.80212C241.077 3.16344 246.134 1.13895 248.795 0.706544C254.483 0.0522405 266.708 -1.32087 273.534 3.3343C274.109 3.78188 274.959 4.57504 275.664 5.60431C279.596 12.0355 277.587 23.6915 276.627 29.2679L276.572 29.586C275.994 32.1939 273.677 37.0846 269.03 35.784C264.382 34.4835 265.87 29.2134 267.195 26.7409C268.418 24.404 269.536 18.7103 268.826 18.0027C268.52 17.6978 266.787 16.0721 261.08 25.3184C256.848 32.1735 251.706 30.5989 249.191 28.633L248.61 28.0615C246.628 25.6404 244.785 20.1658 252.29 16.1653C261.919 11.0326 260.369 9.24392 260.077 8.92735C259.401 8.19244 253.597 8.9954 251.175 10.0768Z" fill="#883CDA"/>
<path d="M10.6655 0.34892V3.41634H2.89492V0.34892H10.6655ZM4.34825 0.34892V14.0933H0.386771V0.34892H4.34825ZM13.2205 0.34892V14.0933H9.24735V0.34892H13.2205Z" fill="white"/>
<path d="M21.0966 9.78712H17.5102V6.71971H21.0966C21.5185 6.71971 21.8702 6.65679 22.1514 6.53094C22.4327 6.4051 22.6398 6.23207 22.7726 6.01184C22.9133 5.79162 22.9836 5.5478 22.9836 5.28038C22.9836 4.94218 22.9133 4.63544 22.7726 4.36016C22.6398 4.07701 22.4327 3.84892 22.1514 3.67589C21.8702 3.50285 21.5185 3.41634 21.0966 3.41634H19.0924V14.0933H15.131V0.34892H21.0966C22.2921 0.34892 23.3235 0.56128 24.1908 0.985999C25.0659 1.41072 25.7379 1.99274 26.2067 2.73207C26.6833 3.47139 26.9216 4.31297 26.9216 5.25679C26.9216 5.91746 26.7849 6.52701 26.5114 7.08544C26.2458 7.636 25.859 8.11577 25.3511 8.52476C24.8432 8.92589 24.2299 9.23656 23.511 9.45679C22.8 9.67701 21.9952 9.78712 21.0966 9.78712Z" fill="white"/>
<path d="M29.6525 12.9489L37.2707 0.34892L40.2242 1.4933L32.6412 14.0933L29.6525 12.9489ZM37.2707 0.34892H41.2322V14.0933H37.2707V0.34892ZM28.6797 0.34892H32.6412V14.0933H28.6797V0.34892Z" fill="white"/>
<path d="M49.3544 8.54836H45.5218L45.4984 6.03544H48.8855C49.3075 6.03544 49.6474 5.98825 49.9052 5.89386C50.1631 5.79948 50.3506 5.66184 50.4678 5.48094C50.585 5.29218 50.6436 5.05622 50.6436 4.77308C50.6436 4.44274 50.585 4.17926 50.4678 3.98263C50.3584 3.77813 50.1826 3.63263 49.9404 3.54611C49.706 3.45959 49.4012 3.41634 49.0262 3.41634H47.1041V14.0933H43.1426V0.34892H48.6277C49.581 0.34892 50.4248 0.427572 51.1593 0.584875C51.9016 0.742179 52.5306 0.978134 53.0463 1.29274C53.562 1.60735 53.9526 2.00454 54.2183 2.48431C54.484 2.96409 54.6168 3.52252 54.6168 4.15959C54.6168 4.71802 54.4957 5.25679 54.2535 5.77589C54.0112 6.29499 53.5854 6.71577 52.9759 7.03825C52.3743 7.35285 51.5226 7.49836 50.4209 7.47476L49.3544 8.54836ZM49.1903 14.0933H44.6662L45.8734 11.0377H49.1903C49.6357 11.0377 49.9873 10.9787 50.2451 10.8607C50.503 10.7349 50.6827 10.5776 50.7842 10.3888C50.8936 10.2 50.9483 10.0152 50.9483 9.83431C50.9483 9.55903 50.8975 9.32701 50.796 9.13825C50.6944 8.94948 50.5264 8.80398 50.292 8.70173C50.0576 8.59948 49.745 8.54836 49.3544 8.54836H46.3305L46.3422 6.03544H49.8232L50.7608 7.07364C51.8234 6.97926 52.6556 7.0933 53.2572 7.41577C53.8589 7.73038 54.2808 8.1433 54.523 8.65454C54.7731 9.15791 54.8981 9.65735 54.8981 10.1529C54.8981 10.845 54.777 11.4388 54.5348 11.9343C54.3003 12.4298 53.9448 12.8388 53.4682 13.1613C52.9994 13.4759 52.4056 13.7118 51.6867 13.8691C50.9757 14.0186 50.1435 14.0933 49.1903 14.0933Z" fill="white"/>
<path d="M62.6101 4.70229L59.4573 14.0933H55.4724L60.77 0.34892H63.5125L62.6101 4.70229ZM65.9855 14.0933L62.7156 4.72589L61.7896 0.34892H64.5791L69.9587 14.0933H65.9855ZM66.0324 8.97308V11.6866H58.7541V8.97308H66.0324Z" fill="white"/>
<path d="M77.6121 0.34892V14.0933H73.6272V0.34892H77.6121ZM81.9486 0.34892V3.41634H69.4196V0.34892H81.9486Z" fill="white"/>
<path d="M93.2588 5.83488V8.90229H85.7812V5.83488H93.2588ZM87.2111 0.34892V14.0933H83.2496V0.34892H87.2111ZM95.7904 0.34892V14.0933H91.8523V0.34892H95.7904Z" fill="white"/>
<path d="M103.725 4.70229L100.572 14.0933H96.5873L101.885 0.34892H104.627L103.725 4.70229ZM107.1 14.0933L103.831 4.72589L102.905 0.34892H105.694L111.074 14.0933H107.1ZM107.147 8.97308V11.6866H99.869V8.97308H107.147Z" fill="white"/>
<path d="M133.987 11.0259V14.0933H120.274V11.0259H133.987ZM129.193 0.34892V14.0933H125.22V0.34892H129.193ZM136.542 0.34892V14.0933H132.581V0.34892H136.542ZM121.833 0.34892V14.0933H117.871V0.34892H121.833Z" fill="white"/>
<path d="M142.414 0.34892V14.0933H138.452V0.34892H142.414ZM150.243 0.34892L145.825 9.15004H141.886L141.441 5.43375H143.797L145.766 0.34892H150.243ZM145.953 14.0933L143.445 8.39499L146.645 6.2242L150.688 14.0933H145.953Z" fill="white"/>
<path d="M164.331 6.99105V7.46296C164.331 8.50903 164.171 9.45285 163.85 10.2944C163.53 11.136 163.077 11.8557 162.491 12.4534C161.905 13.0433 161.213 13.4955 160.416 13.8102C159.619 14.1248 158.744 14.2821 157.791 14.2821C156.822 14.2821 155.935 14.1248 155.13 13.8102C154.333 13.4955 153.642 13.0433 153.056 12.4534C152.47 11.8557 152.017 11.136 151.696 10.2944C151.376 9.45285 151.216 8.50903 151.216 7.46296V6.99105C151.216 5.93712 151.372 4.9933 151.685 4.15959C152.005 3.31802 152.454 2.59836 153.033 2.00061C153.619 1.40285 154.31 0.946673 155.107 0.632066C155.912 0.31746 156.799 0.160156 157.768 0.160156C158.721 0.160156 159.596 0.31746 160.393 0.632066C161.19 0.946673 161.881 1.40285 162.467 2.00061C163.061 2.59836 163.518 3.31802 163.839 4.15959C164.167 4.9933 164.331 5.93712 164.331 6.99105ZM160.346 7.46296V6.97926C160.346 6.37364 160.287 5.83881 160.17 5.37476C160.053 4.90285 159.881 4.50566 159.655 4.18319C159.436 3.86072 159.166 3.6169 158.846 3.45173C158.533 3.2787 158.174 3.19218 157.768 3.19218C157.338 3.19218 156.959 3.2787 156.631 3.45173C156.31 3.6169 156.045 3.86072 155.834 4.18319C155.623 4.50566 155.463 4.90285 155.353 5.37476C155.252 5.83881 155.201 6.37364 155.201 6.97926V7.46296C155.201 8.05285 155.252 8.58375 155.353 9.05566C155.463 9.51971 155.627 9.9169 155.845 10.2472C156.064 10.5776 156.334 10.8293 156.654 11.0023C156.982 11.1753 157.361 11.2618 157.791 11.2618C158.189 11.2618 158.545 11.1753 158.858 11.0023C159.178 10.8293 159.447 10.5776 159.666 10.2472C159.885 9.9169 160.053 9.51971 160.17 9.05566C160.287 8.58375 160.346 8.05285 160.346 7.46296Z" fill="white"/>
<path d="M175.793 0.34892V3.41634H169.066V0.34892H175.793ZM178.536 0.34892V14.0933H174.563V0.34892H178.536ZM167.953 0.34892H171.937L171.691 6.16521C171.644 7.35285 171.547 8.38712 171.398 9.26802C171.25 10.1489 171.031 10.9 170.742 11.5214C170.461 12.1349 170.097 12.6304 169.652 13.0079C169.207 13.3854 168.66 13.6607 168.011 13.8338C167.37 14.0068 166.612 14.0933 165.737 14.0933H165.257L165.175 11.0141L165.562 10.9433C165.882 10.8882 166.155 10.8057 166.382 10.6955C166.616 10.5776 166.812 10.4045 166.968 10.1764C167.132 9.94836 167.265 9.64162 167.366 9.25622C167.476 8.86296 167.562 8.35959 167.624 7.74611C167.687 7.13263 167.734 6.38544 167.765 5.50454L167.953 0.34892Z" fill="white"/>
<path d="M186.471 4.70229L183.318 14.0933H179.333L184.631 0.34892H187.373L186.471 4.70229ZM189.846 14.0933L186.576 4.72589L185.65 0.34892H188.44L193.819 14.0933H189.846ZM189.893 8.97308V11.6866H182.615V8.97308H189.893Z" fill="white"/>
<path d="M13.1151 31.1529V31.6248C13.1151 32.6708 12.9549 33.6146 12.6345 34.4562C12.3142 35.2978 11.861 36.0175 11.275 36.6152C10.689 37.2051 9.99745 37.6573 9.20047 37.972C8.40349 38.2866 7.52837 38.4439 6.57511 38.4439C5.60623 38.4439 4.71939 38.2866 3.91459 37.972C3.11761 37.6573 2.42611 37.2051 1.84009 36.6152C1.25408 36.0175 0.80089 35.2978 0.480534 34.4562C0.160178 33.6146 0 32.6708 0 31.6248V31.1529C0 30.0989 0.156271 29.1551 0.468814 28.3214C0.78917 27.4798 1.23845 26.7602 1.81665 26.1624C2.40267 25.5646 3.09417 25.1085 3.89115 24.7939C4.69595 24.4793 5.58279 24.322 6.55167 24.322C7.50493 24.322 8.38004 24.4793 9.17703 24.7939C9.97401 25.1085 10.6655 25.5646 11.2515 26.1624C11.8454 26.7602 12.3025 27.4798 12.6228 28.3214C12.951 29.1551 13.1151 30.0989 13.1151 31.1529ZM9.13015 31.6248V31.1411C9.13015 30.5354 9.07155 30.0006 8.95434 29.5366C8.83714 29.0646 8.66524 28.6675 8.43865 28.345C8.21987 28.0225 7.9503 27.7787 7.62994 27.6135C7.3174 27.4405 6.95798 27.354 6.55167 27.354C6.12193 27.354 5.74297 27.4405 5.4148 27.6135C5.09444 27.7787 4.82878 28.0225 4.61781 28.345C4.40685 28.6675 4.24667 29.0646 4.13728 29.5366C4.0357 30.0006 3.98492 30.5354 3.98492 31.1411V31.6248C3.98492 32.2146 4.0357 32.7455 4.13728 33.2175C4.24667 33.6815 4.41076 34.0787 4.62954 34.409C4.84832 34.7394 5.11788 34.9911 5.43824 35.1641C5.76641 35.3371 6.14537 35.4236 6.57511 35.4236C6.9736 35.4236 7.32912 35.3371 7.64166 35.1641C7.96202 34.9911 8.23159 34.7394 8.45037 34.409C8.66915 34.0787 8.83714 33.6815 8.95434 33.2175C9.07155 32.7455 9.13015 32.2146 9.13015 31.6248Z" fill="white"/>
<path d="M24.5776 24.5107V27.5781H17.8501V24.5107H24.5776ZM27.3201 24.5107V38.2551H23.3469V24.5107H27.3201ZM16.7366 24.5107H20.7216L20.4754 30.327C20.4286 31.5146 20.3309 32.5489 20.1824 33.4298C20.034 34.3107 19.8152 35.0618 19.5261 35.6832C19.2448 36.2967 18.8815 36.7922 18.4361 37.1697C17.9907 37.5472 17.4438 37.8225 16.7953 37.9955C16.1545 38.1686 15.3966 38.2551 14.5215 38.2551H14.041L13.9589 35.1759L14.3457 35.1051C14.6661 35.05 14.9395 34.9675 15.1661 34.8573C15.4005 34.7394 15.5959 34.5663 15.7521 34.3382C15.9162 34.1102 16.0491 33.8034 16.1506 33.418C16.26 33.0248 16.346 32.5214 16.4085 31.9079C16.471 31.2944 16.5179 30.5472 16.5491 29.6663L16.7366 24.5107Z" fill="white"/>
<path d="M39.5444 35.1995V38.2551H31.6684V35.1995H39.5444ZM33.1803 24.5107V38.2551H29.2188V24.5107H33.1803ZM38.5482 29.6191V32.6866H31.6684V29.6191H38.5482ZM39.603 24.5107V27.5781H31.6684V24.5107H39.603Z" fill="white"/>
<path d="M50.7374 29.9967V33.0641H43.2598V29.9967H50.7374ZM44.6897 24.5107V38.2551H40.7282V24.5107H44.6897ZM53.269 24.5107V38.2551H49.3309V24.5107H53.269Z" fill="white"/>
<path d="M56.1404 37.1107L63.7587 24.5107L66.7122 25.6551L59.1291 38.2551L56.1404 37.1107ZM63.7587 24.5107H67.7201V38.2551H63.7587V24.5107ZM55.1677 24.5107H59.1291V38.2551H55.1677V24.5107Z" fill="white"/>
<path d="M81.8197 32.7102H77.9872L77.9637 30.1972H81.3509C81.7728 30.1972 82.1127 30.15 82.3706 30.0557C82.6284 29.9613 82.8159 29.8236 82.9331 29.6427C83.0503 29.454 83.1089 29.218 83.1089 28.9349C83.1089 28.6045 83.0503 28.3411 82.9331 28.1444C82.8238 27.9399 82.6479 27.7944 82.4057 27.7079C82.1713 27.6214 81.8666 27.5781 81.4915 27.5781H79.5694V38.2551H75.6079V24.5107H81.0931C82.0463 24.5107 82.8902 24.5894 83.6246 24.7467C84.3669 24.904 84.9959 25.1399 85.5116 25.4545C86.0273 25.7691 86.418 26.1663 86.6837 26.6461C86.9493 27.1259 87.0821 27.6843 87.0821 28.3214C87.0821 28.8798 86.961 29.4186 86.7188 29.9377C86.4766 30.4568 86.0508 30.8776 85.4413 31.2C84.8397 31.5146 83.988 31.6602 82.8863 31.6366L81.8197 32.7102ZM81.6556 38.2551H77.1316L78.3388 35.1995H81.6556C82.101 35.1995 82.4526 35.1405 82.7105 35.0225C82.9683 34.8967 83.148 34.7394 83.2496 34.5506C83.359 34.3618 83.4137 34.177 83.4137 33.9961C83.4137 33.7208 83.3629 33.4888 83.2613 33.3C83.1597 33.1113 82.9917 32.9658 82.7573 32.8635C82.5229 32.7613 82.2104 32.7102 81.8197 32.7102H78.7959L78.8076 30.1972H82.2885L83.2262 31.2354C84.2888 31.1411 85.1209 31.2551 85.7226 31.5776C86.3242 31.8922 86.7462 32.3051 86.9884 32.8163C87.2384 33.3197 87.3634 33.8191 87.3634 34.3146C87.3634 35.0068 87.2423 35.6006 87.0001 36.0961C86.7657 36.5916 86.4102 37.0006 85.9336 37.3231C85.4647 37.6377 84.8709 37.8736 84.1521 38.0309C83.441 38.1804 82.6089 38.2551 81.6556 38.2551Z" fill="white"/>
<path d="M95.931 29.8433V32.9107H91.8992V29.8433H95.931ZM97.2554 33.4534H101.217C101.178 34.468 100.893 35.3489 100.361 36.0961C99.8378 36.8433 99.115 37.4214 98.193 37.8304C97.2788 38.2394 96.2162 38.4439 95.0051 38.4439C93.9893 38.4439 93.0869 38.2905 92.2977 37.9837C91.5163 37.6691 90.8522 37.2169 90.3052 36.627C89.7661 36.0371 89.3559 35.3214 89.0746 34.4798C88.7933 33.6382 88.6527 32.6826 88.6527 31.613V31.1646C88.6527 30.095 88.8011 29.1394 89.098 28.2978C89.395 27.4484 89.8169 26.7287 90.3638 26.1388C90.9186 25.5411 91.5749 25.0888 92.3329 24.7821C93.0986 24.4675 93.9503 24.3102 94.8879 24.3102C96.2162 24.3102 97.3335 24.5343 98.2399 24.9826C99.1541 25.4309 99.8612 26.0405 100.361 26.8113C100.861 27.5821 101.154 28.4551 101.24 29.4304H97.2906C97.2984 29.0764 97.2241 28.7422 97.0679 28.4276C96.9194 28.113 96.6694 27.8613 96.3178 27.6725C95.9662 27.4759 95.4895 27.3776 94.8879 27.3776C94.5128 27.3776 94.1808 27.4523 93.8917 27.6017C93.6104 27.7433 93.376 27.9675 93.1884 28.2742C93.0009 28.5809 92.8564 28.9742 92.7548 29.454C92.661 29.9259 92.6141 30.4922 92.6141 31.1529V31.613C92.6141 32.2972 92.6571 32.8832 92.7431 33.3708C92.829 33.8506 92.9658 34.2399 93.1533 34.5388C93.3486 34.8298 93.5987 35.0461 93.9034 35.1877C94.2081 35.3214 94.5754 35.3882 95.0051 35.3882C95.4661 35.3882 95.8646 35.3253 96.2006 35.1995C96.5444 35.0658 96.81 34.8573 96.9976 34.5742C97.1851 34.2832 97.271 33.9096 97.2554 33.4534Z" fill="white"/>
<path d="M105.143 24.5107H109.081L109.07 28.9113C109.062 30.1854 108.956 31.3102 108.753 32.2854C108.55 33.2529 108.265 34.0866 107.897 34.7866C107.538 35.4866 107.116 36.0725 106.632 36.5444C106.155 37.0085 105.635 37.3781 105.073 37.6534C104.51 37.9287 103.928 38.1293 103.327 38.2551H102.905L102.823 35.1995H103.127C103.596 34.7276 103.963 34.2753 104.229 33.8427C104.502 33.4023 104.702 32.9461 104.827 32.4742C104.952 31.9944 105.03 31.4635 105.061 30.8815C105.1 30.2916 105.12 29.6073 105.12 28.8287L105.143 24.5107ZM106.221 24.5107H115.926V38.2551H111.964V27.5781H106.221V24.5107ZM102.002 35.1877H117.825V42.1602H113.875V38.2551H105.952V42.1602H102.002V35.1877Z" fill="white"/>
<path d="M126.779 29.8433V32.9107H122.747V29.8433H126.779ZM128.103 33.4534H132.065C132.026 34.468 131.741 35.3489 131.209 36.0961C130.686 36.8433 129.963 37.4214 129.041 37.8304C128.127 38.2394 127.064 38.4439 125.853 38.4439C124.837 38.4439 123.935 38.2905 123.146 37.9837C122.364 37.6691 121.7 37.2169 121.153 36.627C120.614 36.0371 120.204 35.3214 119.923 34.4798C119.641 33.6382 119.501 32.6826 119.501 31.613V31.1646C119.501 30.095 119.649 29.1394 119.946 28.2978C120.243 27.4484 120.665 26.7287 121.212 26.1388C121.767 25.5411 122.423 25.0888 123.181 24.7821C123.947 24.4675 124.798 24.3102 125.736 24.3102C127.064 24.3102 128.181 24.5343 129.088 24.9826C130.002 25.4309 130.709 26.0405 131.209 26.8113C131.709 27.5821 132.002 28.4551 132.088 29.4304H128.139C128.146 29.0764 128.072 28.7422 127.916 28.4276C127.767 28.113 127.517 27.8613 127.166 27.6725C126.814 27.4759 126.337 27.3776 125.736 27.3776C125.361 27.3776 125.029 27.4523 124.74 27.6017C124.458 27.7433 124.224 27.9675 124.036 28.2742C123.849 28.5809 123.704 28.9742 123.603 29.454C123.509 29.9259 123.462 30.4922 123.462 31.1529V31.613C123.462 32.2972 123.505 32.8832 123.591 33.3708C123.677 33.8506 123.814 34.2399 124.001 34.5388C124.197 34.8298 124.447 35.0461 124.751 35.1877C125.056 35.3214 125.423 35.3882 125.853 35.3882C126.314 35.3882 126.713 35.3253 127.049 35.1995C127.392 35.0658 127.658 34.8573 127.845 34.5742C128.033 34.2832 128.119 33.9096 128.103 33.4534Z" fill="white"/>
<path d="M139.449 33.9489H135.862V30.8815H139.449C139.871 30.8815 140.222 30.8186 140.503 30.6927C140.785 30.5669 140.992 30.3939 141.125 30.1736C141.265 29.9534 141.336 29.7096 141.336 29.4422C141.336 29.104 141.265 28.7972 141.125 28.522C140.992 28.2388 140.785 28.0107 140.503 27.8377C140.222 27.6646 139.871 27.5781 139.449 27.5781H137.444V38.2551H133.483V24.5107H139.449C140.644 24.5107 141.676 24.7231 142.543 25.1478C143.418 25.5725 144.09 26.1545 144.559 26.8939C145.035 27.6332 145.274 28.4748 145.274 29.4186C145.274 30.0793 145.137 30.6888 144.863 31.2472C144.598 31.7978 144.211 32.2776 143.703 32.6866C143.195 33.0877 142.582 33.3984 141.863 33.6186C141.152 33.8388 140.347 33.9489 139.449 33.9489Z" fill="white"/>
<path d="M157.041 29.9967V33.0641H149.563V29.9967H157.041ZM150.993 24.5107V38.2551H147.032V24.5107H150.993ZM159.572 24.5107V38.2551H155.634V24.5107H159.572Z" fill="white"/>
<path d="M165.702 24.5107V38.2551H161.741V24.5107H165.702Z" fill="white"/>
<path d="M171.832 24.5107V38.2551H167.87V24.5107H171.832ZM179.661 24.5107L175.243 33.3118H171.305L170.859 29.5955H173.215L175.184 24.5107H179.661ZM175.371 38.2551L172.863 32.5568L176.063 30.386L180.107 38.2551H175.371Z" fill="white"/>
<path d="M193.749 31.1529V31.6248C193.749 32.6708 193.589 33.6146 193.268 34.4562C192.948 35.2978 192.495 36.0175 191.909 36.6152C191.323 37.2051 190.631 37.6573 189.834 37.972C189.037 38.2866 188.162 38.4439 187.209 38.4439C186.24 38.4439 185.353 38.2866 184.549 37.972C183.752 37.6573 183.06 37.2051 182.474 36.6152C181.888 36.0175 181.435 35.2978 181.114 34.4562C180.794 33.6146 180.634 32.6708 180.634 31.6248V31.1529C180.634 30.0989 180.79 29.1551 181.103 28.3214C181.423 27.4798 181.872 26.7602 182.451 26.1624C183.037 25.5646 183.728 25.1085 184.525 24.7939C185.33 24.4793 186.217 24.322 187.186 24.322C188.139 24.322 189.014 24.4793 189.811 24.7939C190.608 25.1085 191.299 25.5646 191.885 26.1624C192.479 26.7602 192.936 27.4798 193.257 28.3214C193.585 29.1551 193.749 30.0989 193.749 31.1529ZM189.764 31.6248V31.1411C189.764 30.5354 189.705 30.0006 189.588 29.5366C189.471 29.0646 189.299 28.6675 189.073 28.345C188.854 28.0225 188.584 27.7787 188.264 27.6135C187.951 27.4405 187.592 27.354 187.186 27.354C186.756 27.354 186.377 27.4405 186.049 27.6135C185.728 27.7787 185.463 28.0225 185.252 28.345C185.041 28.6675 184.881 29.0646 184.771 29.5366C184.67 30.0006 184.619 30.5354 184.619 31.1411V31.6248C184.619 32.2146 184.67 32.7455 184.771 33.2175C184.881 33.6815 185.045 34.0787 185.263 34.409C185.482 34.7394 185.752 34.9911 186.072 35.1641C186.4 35.3371 186.779 35.4236 187.209 35.4236C187.608 35.4236 187.963 35.3371 188.276 35.1641C188.596 34.9911 188.866 34.7394 189.084 34.409C189.303 34.0787 189.471 33.6815 189.588 33.2175C189.705 32.7455 189.764 32.2146 189.764 31.6248Z" fill="white"/>
<path d="M201.484 32.7102H197.652L197.628 30.1972H201.016C201.438 30.1972 201.777 30.15 202.035 30.0557C202.293 29.9613 202.481 29.8236 202.598 29.6427C202.715 29.454 202.774 29.218 202.774 28.9349C202.774 28.6045 202.715 28.3411 202.598 28.1444C202.488 27.9399 202.313 27.7944 202.07 27.7079C201.836 27.6214 201.531 27.5781 201.156 27.5781H199.234V38.2551H195.273V24.5107H200.758C201.711 24.5107 202.555 24.5894 203.289 24.7467C204.032 24.904 204.661 25.1399 205.176 25.4545C205.692 25.7691 206.083 26.1663 206.348 26.6461C206.614 27.1259 206.747 27.6843 206.747 28.3214C206.747 28.8798 206.626 29.4186 206.384 29.9377C206.141 30.4568 205.715 30.8776 205.106 31.2C204.504 31.5146 203.653 31.6602 202.551 31.6366L201.484 32.7102ZM201.32 38.2551H196.796L198.003 35.1995H201.32C201.766 35.1995 202.117 35.1405 202.375 35.0225C202.633 34.8967 202.813 34.7394 202.914 34.5506C203.024 34.3618 203.078 34.177 203.078 33.9961C203.078 33.7208 203.028 33.4888 202.926 33.3C202.824 33.1113 202.656 32.9658 202.422 32.8635C202.188 32.7613 201.875 32.7102 201.484 32.7102H198.461L198.472 30.1972H201.953L202.891 31.2354C203.953 31.1411 204.786 31.2551 205.387 31.5776C205.989 31.8922 206.411 32.3051 206.653 32.8163C206.903 33.3197 207.028 33.8191 207.028 34.3146C207.028 35.0068 206.907 35.6006 206.665 36.0961C206.43 36.5916 206.075 37.0006 205.598 37.3231C205.129 37.6377 204.536 37.8736 203.817 38.0309C203.106 38.1804 202.274 38.2551 201.32 38.2551Z" fill="white"/>
<path d="M221.432 31.1529V31.6248C221.432 32.6708 221.272 33.6146 220.952 34.4562C220.632 35.2978 220.178 36.0175 219.592 36.6152C219.006 37.2051 218.315 37.6573 217.518 37.972C216.721 38.2866 215.846 38.4439 214.892 38.4439C213.924 38.4439 213.037 38.2866 212.232 37.972C211.435 37.6573 210.743 37.2051 210.157 36.6152C209.571 36.0175 209.118 35.2978 208.798 34.4562C208.478 33.6146 208.317 32.6708 208.317 31.6248V31.1529C208.317 30.0989 208.474 29.1551 208.786 28.3214C209.107 27.4798 209.556 26.7602 210.134 26.1624C210.72 25.5646 211.412 25.1085 212.209 24.7939C213.013 24.4793 213.9 24.322 214.869 24.322C215.822 24.322 216.697 24.4793 217.494 24.7939C218.291 25.1085 218.983 25.5646 219.569 26.1624C220.163 26.7602 220.62 27.4798 220.94 28.3214C221.268 29.1551 221.432 30.0989 221.432 31.1529ZM217.448 31.6248V31.1411C217.448 30.5354 217.389 30.0006 217.272 29.5366C217.155 29.0646 216.983 28.6675 216.756 28.345C216.537 28.0225 216.268 27.7787 215.947 27.6135C215.635 27.4405 215.275 27.354 214.869 27.354C214.439 27.354 214.06 27.4405 213.732 27.6135C213.412 27.7787 213.146 28.0225 212.935 28.345C212.724 28.6675 212.564 29.0646 212.455 29.5366C212.353 30.0006 212.302 30.5354 212.302 31.1411V31.6248C212.302 32.2146 212.353 32.7455 212.455 33.2175C212.564 33.6815 212.728 34.0787 212.947 34.409C213.166 34.7394 213.435 34.9911 213.756 35.1641C214.084 35.3371 214.463 35.4236 214.892 35.4236C215.291 35.4236 215.646 35.3371 215.959 35.1641C216.279 34.9911 216.549 34.7394 216.768 34.409C216.987 34.0787 217.155 33.6815 217.272 33.2175C217.389 32.7455 217.448 32.2146 217.448 31.6248Z" fill="white"/>
<path d="M227.187 24.5107V38.2551H223.226V24.5107H227.187ZM220.378 21.7972C220.378 21.3568 220.553 20.9871 220.905 20.6882C221.257 20.3815 221.671 20.2281 222.147 20.2281C222.632 20.2281 223.046 20.3815 223.39 20.6882C223.741 20.9871 223.917 21.3568 223.917 21.7972C223.917 22.2377 223.741 22.6113 223.39 22.918C223.046 23.2169 222.632 23.3663 222.147 23.3663C221.671 23.3663 221.257 23.2169 220.905 22.918C220.553 22.6113 220.378 22.2377 220.378 21.7972ZM226.46 21.7972C226.46 21.3568 226.636 20.9871 226.988 20.6882C227.339 20.3815 227.754 20.2281 228.23 20.2281C228.715 20.2281 229.129 20.3815 229.473 20.6882C229.824 20.9871 230 21.3568 230 21.7972C230 22.2377 229.824 22.6113 229.473 22.918C229.129 23.2169 228.715 23.3663 228.23 23.3663C227.754 23.3663 227.339 23.2169 226.988 22.918C226.636 22.6113 226.46 22.2377 226.46 21.7972Z" fill="white"/>
</svg>
