<svg width="49" height="57" viewBox="0 0 49 57" fill="none" xmlns="http://www.w3.org/2000/svg">
<path d="M44.6875 56.875H40.625V50.7812C40.6218 48.0886 39.5508 45.5072 37.6468 43.6032C35.7428 41.6992 33.1614 40.6282 30.4688 40.625H18.2812C15.5886 40.6282 13.0072 41.6992 11.1032 43.6032C9.19922 45.5072 8.12817 48.0886 8.125 50.7812V56.875H4.0625V50.7812C4.06691 47.0116 5.56637 43.3975 8.23194 40.7319C10.8975 38.0664 14.5116 36.5669 18.2812 36.5625H30.4688C34.2384 36.5669 37.8525 38.0664 40.5181 40.7319C43.1836 43.3975 44.6831 47.0116 44.6875 50.7812V56.875Z" fill="white"/>
<path d="M2.03125 8.125C1.49253 8.125 0.975873 8.33901 0.59494 8.71994C0.214006 9.10087 0 9.61753 0 10.1562V28.4375H4.0625V10.1562C4.0625 9.61753 3.84849 9.10087 3.46756 8.71994C3.08663 8.33901 2.56997 8.125 2.03125 8.125Z" fill="white"/>
<path d="M0 0V4.0625H10.1562V18.2812C10.1562 22.0523 11.6543 25.6689 14.3208 28.3354C16.9874 31.002 20.604 32.5 24.375 32.5C28.146 32.5 31.7626 31.002 34.4292 28.3354C37.0957 25.6689 38.5938 22.0523 38.5938 18.2812V4.0625H48.75V0H0ZM14.2188 4.0625H34.5312V10.1562H14.2188V4.0625ZM24.375 28.4375C21.6814 28.4375 19.0981 27.3675 17.1934 25.4628C15.2888 23.5581 14.2188 20.9749 14.2188 18.2812V14.2188H34.5312V18.2812C34.5312 20.9749 33.4612 23.5581 31.5566 25.4628C29.6519 27.3675 27.0686 28.4375 24.375 28.4375Z" fill="white"/>
</svg>
